<svg width="32" height="33" viewBox="0 0 32 33" fill="none" xmlns="http://www.w3.org/2000/svg">
<g id="fb">
<path id="Vector" d="M32 16.6265C32 24.7075 26.0099 31.3883 18.2282 32.4724C17.5006 32.5733 16.7562 32.626 16.0006 32.626C15.1283 32.626 14.2718 32.5565 13.4377 32.4219C5.81859 31.1954 0 24.5898 0 16.6265C0 7.78991 7.16393 0.625977 15.9994 0.625977C24.835 0.625977 32 7.78991 32 16.6265Z" fill="#1877F2"/>
<path id="Vector_2" d="M18.2281 13.4727V16.9582H22.5399L21.8571 21.6535H18.2281V32.4711C17.5005 32.572 16.756 32.6247 16.0004 32.6247C15.1282 32.6247 14.2716 32.5552 13.4375 32.4207L13.4375 21.6535H9.46094V16.9582H13.4375V12.6935C13.4375 10.0477 15.5822 7.90186 18.2292 7.90186V7.9041C18.237 7.9041 18.2438 7.90186 18.2516 7.90186H22.541V11.9625H19.7382C18.9052 11.9625 18.2292 12.6386 18.2292 13.4716L18.2281 13.4727Z" fill="white"/>
</g>
</svg>
