<svg width="32" height="33" viewBox="0 0 32 33" fill="none" xmlns="http://www.w3.org/2000/svg">
<g id="Group">
<path id="Vector" d="M16.0364 0.625977H15.9636C7.14713 0.625977 0 7.77311 0 16.5895L0 16.6624C0 25.4788 7.14713 32.626 15.9636 32.626H16.0364C24.8529 32.626 32 25.4788 32 16.6624V16.5895C32 7.77311 24.8529 0.625977 16.0364 0.625977Z" fill="url(#paint0_linear_82_809)"/>
<g id="Group_2">
<path id="Vector_2" d="M20.9515 7.13623L11.0498 7.13623C8.31428 7.13623 6.08887 9.36164 6.08887 12.0972L6.08887 21.1558C6.08887 23.8913 8.31428 26.1167 11.0498 26.1167H20.9515C23.687 26.1167 25.9124 23.8913 25.9124 21.1558V12.0972C25.9124 9.36164 23.687 7.13623 20.9515 7.13623ZM7.83893 12.0972C7.83893 10.3269 9.27956 8.88629 11.0498 8.88629L20.9515 8.88629C22.7217 8.88629 24.1624 10.3269 24.1624 12.0972V21.1558C24.1624 22.926 22.7217 24.3667 20.9515 24.3667H11.0498C9.27956 24.3667 7.83893 22.926 7.83893 21.1558L7.83893 12.0972Z" fill="white"/>
<path id="Vector_3" d="M16.0003 21.2398C18.5441 21.2398 20.6148 19.1702 20.6148 16.6253C20.6148 14.0803 18.5452 12.0107 16.0003 12.0107C13.4553 12.0107 11.3857 14.0803 11.3857 16.6253C11.3857 19.1702 13.4553 21.2398 16.0003 21.2398ZM16.0003 13.7619C17.5799 13.7619 18.8647 15.0467 18.8647 16.6264C18.8647 18.206 17.5799 19.4908 16.0003 19.4908C14.4206 19.4908 13.1358 18.206 13.1358 16.6264C13.1358 15.0467 14.4206 13.7619 16.0003 13.7619Z" fill="white"/>
<path id="Vector_4" d="M21.0421 12.7562C21.7271 12.7562 22.2855 12.199 22.2855 11.5128C22.2855 10.8267 21.7283 10.2695 21.0421 10.2695C20.356 10.2695 19.7988 10.8267 19.7988 11.5128C19.7988 12.199 20.356 12.7562 21.0421 12.7562Z" fill="white"/>
</g>
</g>
<defs>
<linearGradient id="paint0_linear_82_809" x1="4.67505" y1="27.9509" x2="27.3249" y2="5.30215" gradientUnits="userSpaceOnUse">
<stop stop-color="#FAAD4F"/>
<stop offset="0.35" stop-color="#DD2A7B"/>
<stop offset="0.62" stop-color="#9537B0"/>
<stop offset="1" stop-color="#515BD4"/>
</linearGradient>
</defs>
</svg>
