<svg width="32" height="33" viewBox="0 0 32 33" fill="none" xmlns="http://www.w3.org/2000/svg">
<g id="mess">
<path id="Vector" d="M16.0364 0.625977H15.9636C7.14713 0.625977 0 7.77311 0 16.5895L0 16.6624C0 25.4788 7.14713 32.626 15.9636 32.626H16.0364C24.8529 32.626 32 25.4788 32 16.6624V16.5895C32 7.77311 24.8529 0.625977 16.0364 0.625977Z" fill="url(#paint0_linear_82_805)"/>
<path id="Vector_2" d="M25.527 16.6252V16.6802C25.5012 21.2599 22.2253 25.0863 17.8922 25.963C17.5985 26.0213 17.3014 26.0673 16.9987 26.0998C16.6713 26.1334 16.3372 26.1525 16.0009 26.1525C14.678 26.1525 13.4178 25.8823 12.272 25.3924L7.85148 25.8632C7.09696 25.944 6.53978 25.1737 6.85257 24.4831L8.04095 21.8519C7.05101 20.3507 6.47363 18.5536 6.47363 16.6252C6.47363 11.3739 10.7484 7.09912 16.0009 7.09912C20.9674 7.09912 25.0584 10.9199 25.4889 15.7766C25.5147 16.0546 25.527 16.3405 25.527 16.6252Z" fill="white"/>
<path id="Vector_3" d="M20.58 13.8441C21.0072 13.4943 21.5935 14.0179 21.2931 14.4809L19.293 17.5662L18.2347 19.1985C18.0093 19.5461 17.5362 19.6291 17.2055 19.3791L15.4509 18.0483L14.3691 17.2288C14.2816 17.1626 14.1594 17.1649 14.0742 17.2344L11.4194 19.4004C10.9923 19.749 10.407 19.2255 10.7075 18.7624L12.5809 15.8744L13.6392 14.2421C13.8646 13.8946 14.3377 13.8116 14.6684 14.0616L16.3714 15.352L17.4521 16.1704C17.5407 16.2366 17.6629 16.2343 17.7481 16.1648L20.58 13.843V13.8441Z" fill="url(#paint1_linear_82_805)"/>
</g>
<defs>
<linearGradient id="paint0_linear_82_805" x1="4.67505" y1="27.9509" x2="27.3238" y2="5.30215" gradientUnits="userSpaceOnUse">
<stop stop-color="#0498FA"/>
<stop offset="0.34" stop-color="#5C5EFE"/>
<stop offset="0.73" stop-color="#F44E90"/>
<stop offset="1" stop-color="#FA8679"/>
</linearGradient>
<linearGradient id="paint1_linear_82_805" x1="12.0293" y1="20.6269" x2="20.0038" y2="12.6524" gradientUnits="userSpaceOnUse">
<stop stop-color="#0498FA"/>
<stop offset="0.34" stop-color="#5C5EFE"/>
<stop offset="0.73" stop-color="#F44E90"/>
<stop offset="1" stop-color="#FA8679"/>
</linearGradient>
</defs>
</svg>
