<svg width="41" height="41" viewBox="0 0 41 41" fill="none" xmlns="http://www.w3.org/2000/svg">
<g id="Interface / Bookmark">
<path id="Vector" d="M10.333 12.537V28.3456C10.333 30.6141 10.333 31.7481 10.6732 32.4422C11.3038 33.7286 12.6856 34.468 14.1058 34.279C14.872 34.1771 15.8157 33.5479 17.7032 32.2896L17.7077 32.2866C18.4558 31.7879 18.8299 31.5385 19.2213 31.4001C19.94 31.1461 20.7243 31.1461 21.443 31.4001C21.8352 31.5387 22.2107 31.7891 22.9619 32.2899C24.8493 33.5482 25.7941 34.1768 26.5603 34.2788C27.9805 34.4677 29.3623 33.7286 29.9928 32.4422C30.333 31.7481 30.333 30.6137 30.333 28.3456V12.5316C30.333 10.6684 30.333 9.73537 29.9701 9.02303C29.6505 8.39582 29.1392 7.88626 28.512 7.56668C27.799 7.20337 26.8668 7.20337 25 7.20337H15.6667C13.7998 7.20337 12.8657 7.20337 12.1527 7.56668C11.5255 7.88626 11.0159 8.39582 10.6963 9.02303C10.333 9.73607 10.333 10.6702 10.333 12.537Z" stroke="#F53255" stroke-width="2" stroke-linecap="round" stroke-linejoin="round"/>
</g>
</svg>
