<svg width="40" height="41" viewBox="0 0 40 41" fill="none" xmlns="http://www.w3.org/2000/svg">
<g id="Communication / Chat">
<path id="Vector" d="M9.33268 33.7373L11.8726 31.7053L11.8913 31.691C12.4208 31.2674 12.688 31.0536 12.9861 30.9013C13.2536 30.7646 13.5388 30.6651 13.833 30.6048C14.1646 30.5367 14.5101 30.5367 15.2035 30.5367H29.6718C31.535 30.5367 32.4677 30.5367 33.18 30.1737C33.8072 29.8542 34.3175 29.3437 34.637 28.7165C35 28.0042 35 27.0725 35 25.2093V12.5316C35 10.6684 35 9.73537 34.637 9.02303C34.3175 8.39582 33.8062 7.88626 33.179 7.56668C32.466 7.20337 31.5338 7.20337 29.667 7.20337H10.3337C8.46682 7.20337 7.5327 7.20337 6.81966 7.56668C6.19245 7.88626 5.68289 8.39582 5.36331 9.02303C5 9.73607 5 10.6702 5 12.537V31.6554C5 33.4315 5 34.3194 5.3641 34.7756C5.68074 35.1722 6.16073 35.403 6.66829 35.4025C7.25192 35.4018 7.94573 34.8468 9.33268 33.7373Z" stroke="#F53255" stroke-width="2" stroke-linecap="round" stroke-linejoin="round"/>
</g>
</svg>
