<svg width="40" height="41" viewBox="0 0 40 41" fill="none" xmlns="http://www.w3.org/2000/svg">
<g id="File / File_Search">
<path id="Vector" d="M24.9986 30.5372L22.236 27.7746M21.667 5.53807C21.5077 5.53662 21.3286 5.53662 21.1242 5.53662H13.6667C11.7998 5.53662 10.8657 5.53662 10.1527 5.89993C9.52546 6.21951 9.0159 6.72908 8.69632 7.35628C8.33301 8.06932 8.33301 9.00344 8.33301 10.8703V30.2036C8.33301 32.0705 8.33301 33.0034 8.69632 33.7164C9.0159 34.3436 9.52546 34.8541 10.1527 35.1737C10.865 35.5366 11.798 35.5366 13.6612 35.5366L26.3382 35.5366C28.2013 35.5366 29.133 35.5366 29.8453 35.1737C30.4725 34.8541 30.9838 34.3436 31.3034 33.7164C31.6663 33.0041 31.6663 32.0724 31.6663 30.2093V16.0794C31.6663 15.875 31.6662 15.6958 31.6647 15.5366M21.667 5.53807C22.1427 5.54241 22.4425 5.56006 22.73 5.62907C23.0701 5.71073 23.3961 5.8454 23.6943 6.02816C24.0306 6.23423 24.3194 6.52298 24.8955 7.09912L30.1046 12.3083C30.6812 12.8848 30.9678 13.1722 31.1739 13.5086C31.3567 13.8069 31.4919 14.132 31.5736 14.4722C31.6426 14.7596 31.6604 15.0609 31.6647 15.5366M21.667 5.53807L21.6663 10.2036C21.6663 12.0705 21.6663 13.0035 22.0297 13.7166C22.3492 14.3438 22.8588 14.8541 23.486 15.1737C24.1983 15.5366 25.1314 15.5366 26.9945 15.5366H31.6647M19.1663 28.87C16.8652 28.87 14.9997 27.0045 14.9997 24.7033C14.9997 22.4021 16.8652 20.5366 19.1663 20.5366C21.4675 20.5366 23.333 22.4021 23.333 24.7033C23.333 27.0045 21.4675 28.87 19.1663 28.87Z" stroke="#F53255" stroke-width="2" stroke-linecap="round" stroke-linejoin="round"/>
</g>
</svg>
