<svg width="28" height="29" viewBox="0 0 28 29" fill="none" xmlns="http://www.w3.org/2000/svg">
<g id="File / Folder_Open">
<path id="Vector" d="M20.7703 23.9145L23.0919 23.9145C23.5964 23.9145 23.8488 23.9145 24.0608 23.8279C24.248 23.7514 24.4127 23.6272 24.5376 23.4682C24.6791 23.2881 24.7487 23.0459 24.8874 22.5606L26.154 18.1273C26.3848 17.3195 26.4996 16.9156 26.409 16.596C26.3296 16.3161 26.1486 16.076 25.9013 15.9228C25.6353 15.7579 25.2467 15.7484 24.5003 15.7478M20.7703 23.9145H7.22973M20.7703 23.9145C22.0745 23.9145 22.7267 23.9145 23.2253 23.6604C23.6643 23.4367 24.0222 23.0793 24.2459 22.6402C24.5003 22.1411 24.5003 21.4877 24.5003 20.1809V15.7478M7.22973 23.9145H5.97461C5.13511 23.9145 4.71421 23.9145 4.43197 23.7396C4.18464 23.5863 4.00335 23.3461 3.92394 23.0662C3.90721 23.0073 3.89752 22.9454 3.89429 22.8787M7.22973 23.9145C5.92549 23.9145 5.2724 23.9145 4.77376 23.6604C4.41728 23.4788 4.11508 23.2088 3.89429 22.8787M24.5003 15.7478C24.4543 15.7478 24.407 15.7478 24.3583 15.7478H5.83366L4.18018 21.535L4.17778 21.5431C3.99097 22.1969 3.88007 22.5851 3.89429 22.8787M24.5003 15.7478L24.5003 11.3142C24.5003 10.0074 24.5003 9.35403 24.2459 8.8549C24.0222 8.41585 23.6646 8.05916 23.2255 7.83545C22.7264 7.58114 22.0735 7.58114 20.7667 7.58114H14M3.89429 22.8787C3.84315 22.8022 3.79638 22.7226 3.75432 22.64C3.5 22.1409 3.5 21.4879 3.5 20.1811V7.58114M3.5 7.58114H14M3.5 7.58114C3.5 6.29247 4.54467 5.2478 5.83333 5.2478H10.1203C10.691 5.2478 10.977 5.2478 11.2455 5.31227C11.4836 5.36943 11.7108 5.46394 11.9196 5.59188C12.155 5.73613 12.3571 5.93825 12.7604 6.34155L14 7.58114" stroke="#F6892F" stroke-width="1.3" stroke-linecap="round" stroke-linejoin="round"/>
</g>
</svg>
