<svg width="41" height="41" viewBox="0 0 41 41" fill="none" xmlns="http://www.w3.org/2000/svg">
<g id="Navigation / Globe">
<path id="Vector" d="M5.33301 20.5366H13.6663M5.33301 20.5366C5.33301 28.8209 12.0487 35.5366 20.333 35.5366M5.33301 20.5366C5.33301 12.2523 12.0487 5.53662 20.333 5.53662M13.6663 20.5366H26.9997M13.6663 20.5366C13.6663 28.8209 16.6511 35.5366 20.333 35.5366M13.6663 20.5366C13.6663 12.2523 16.6511 5.53662 20.333 5.53662M26.9997 20.5366H35.333M26.9997 20.5366C26.9997 12.2523 24.0149 5.53662 20.333 5.53662M26.9997 20.5366C26.9997 28.8209 24.0149 35.5366 20.333 35.5366M35.333 20.5366C35.333 12.2523 28.6173 5.53662 20.333 5.53662M35.333 20.5366C35.333 28.8209 28.6173 35.5366 20.333 35.5366" stroke="#F53255" stroke-width="2" stroke-linecap="round" stroke-linejoin="round"/>
</g>
</svg>
