<svg width="32" height="31" viewBox="0 0 32 31" fill="none" xmlns="http://www.w3.org/2000/svg">
<g id="Vector">
<path id="Vector_2" d="M15.9443 12.8093V18.6184H24.4655C24.0913 20.4866 22.9685 22.0685 21.2844 23.1321L26.423 26.9094C29.417 24.2913 31.1443 20.4458 31.1443 15.8777C31.1443 14.814 31.0435 13.7912 30.8563 12.8095L15.9443 12.8093Z" fill="#4285F4"/>
<path id="Vector_3" d="M7.07086 18.3916L5.91191 19.2321L1.80957 22.2593C4.41487 27.1547 9.75462 30.5366 15.944 30.5366C20.2189 30.5366 23.8029 29.2002 26.4227 26.9094L21.2841 23.132C19.8734 24.032 18.0742 24.5776 15.944 24.5776C11.8273 24.5776 8.3297 21.9458 7.07734 18.4003L7.07086 18.3916Z" fill="#34A853"/>
<path id="Vector_4" d="M1.80969 8.81396C0.730203 10.8321 0.111328 13.1094 0.111328 15.5366C0.111328 17.9638 0.730203 20.2411 1.80969 22.2592C1.80969 22.2728 7.07796 18.3865 7.07796 18.3865C6.7613 17.4865 6.57412 16.532 6.57412 15.5364C6.57412 14.5409 6.7613 13.5864 7.07796 12.6864L1.80969 8.81396Z" fill="#FBBC05"/>
<path id="Vector_5" d="M15.9443 6.50934C18.2761 6.50934 20.3488 7.27296 22.0041 8.74571L26.5382 4.45031C23.7889 2.02308 20.2194 0.536621 15.9443 0.536621C9.75495 0.536621 4.41487 3.9048 1.80957 8.8139L7.07768 12.6866C8.32988 9.14114 11.8276 6.50934 15.9443 6.50934Z" fill="#EA4335"/>
</g>
</svg>
