<svg width="24" height="25" viewBox="0 0 24 25" fill="none" xmlns="http://www.w3.org/2000/svg">
<g id="Edit / Hide">
<path id="Vector" d="M3.9994 4.03955L19.9994 20.0396M16.4994 16.7954C15.1468 17.5241 13.618 18.0394 11.9994 18.0394C8.46875 18.0394 5.36575 15.5874 3.58632 13.8184C3.11661 13.3514 2.8818 13.118 2.73231 12.6597C2.6257 12.3328 2.62567 11.7461 2.73231 11.4193C2.88185 10.961 3.11715 10.727 3.58778 10.2592C4.48467 9.36776 5.71752 8.30314 7.17171 7.46631M19.4994 14.673C19.8325 14.3801 20.1375 14.0919 20.4112 13.8198L20.4141 13.8168C20.8827 13.351 21.1177 13.1174 21.2669 12.6602C21.3736 12.3333 21.3733 11.7464 21.2667 11.4195C21.1173 10.9614 20.8822 10.7273 20.4128 10.2607C18.6334 8.49163 15.5301 6.03955 11.9994 6.03955C11.6619 6.03955 11.3283 6.06196 10.9994 6.10403M13.3223 13.5396C12.9697 13.8507 12.5066 14.0396 11.9994 14.0396C10.8948 14.0396 9.9994 13.1441 9.9994 12.0396C9.9994 11.5 10.213 11.0106 10.5603 10.6509" stroke="#88949D" stroke-width="2" stroke-linecap="round" stroke-linejoin="round"/>
</g>
</svg>
