<svg width="32" height="33" viewBox="0 0 32 33" fill="none" xmlns="http://www.w3.org/2000/svg">
<g id="Navigation / House_01">
<path id="Vector" d="M26.6663 23.2929V15.8956C26.6663 15.1832 26.6657 14.8267 26.5791 14.4952C26.5023 14.2014 26.3763 13.9234 26.2058 13.6722C26.0133 13.3887 25.7457 13.1536 25.2096 12.6844L18.8096 7.08441C17.8141 6.21336 17.3163 5.77806 16.7562 5.61241C16.2626 5.46644 15.7365 5.46644 15.2429 5.61241C14.6832 5.77794 14.1861 6.21283 13.1922 7.08256L6.79004 12.6844C6.25386 13.1536 5.9864 13.3887 5.79395 13.6722C5.6234 13.9234 5.49641 14.2014 5.41964 14.4952C5.33301 14.8267 5.33301 15.1832 5.33301 15.8956V23.2929C5.33301 24.5354 5.33301 25.1564 5.536 25.6464C5.80665 26.2999 6.32543 26.8196 6.97884 27.0903C7.4689 27.2933 8.09015 27.2933 9.33266 27.2933C10.5752 27.2933 11.1971 27.2933 11.6872 27.0903C12.3406 26.8196 12.8592 26.3 13.1299 25.6466C13.3329 25.1565 13.333 24.5353 13.333 23.2927V21.9594C13.333 20.4867 14.5269 19.2927 15.9997 19.2927C17.4724 19.2927 18.6663 20.4867 18.6663 21.9594V23.2927C18.6663 24.5353 18.6663 25.1565 18.8693 25.6466C19.14 26.3 19.6588 26.8196 20.3122 27.0903C20.8022 27.2933 21.4235 27.2933 22.666 27.2933C23.9085 27.2933 24.5305 27.2933 25.0205 27.0903C25.6739 26.8196 26.1926 26.2999 26.4632 25.6464C26.6662 25.1564 26.6663 24.5354 26.6663 23.2929Z" stroke="#F53255" stroke-width="2" stroke-linecap="round" stroke-linejoin="round"/>
</g>
</svg>
