<svg width="35" height="36" viewBox="0 0 35 36" fill="none" xmlns="http://www.w3.org/2000/svg">
<g id="Social Icons" clip-path="url(#clip0_56_1935)">
<path id="Vector" d="M3.29177 4.16413L3.29176 4.16412C2.36873 5.0807 1.81032 5.99741 1.3819 7.08753C0.972767 8.14646 0.681897 9.36369 0.60206 11.173L3.29177 4.16413ZM3.29177 4.16413L3.29425 4.16164M3.29177 4.16413L3.29425 4.16164M3.29425 4.16164C4.211 3.23842 5.12773 2.68012 6.22463 2.25172C7.27589 1.84295 8.49967 1.55181 10.31 1.47193L3.29425 4.16164ZM3.29176 32.5756L3.29301 32.5769C4.21153 33.4954 5.12901 34.0599 6.21639 34.4806C7.27563 34.89 8.49313 35.1811 10.3032 35.261C10.3032 35.261 10.3033 35.261 10.3033 35.261L10.2813 35.7605C12.1475 35.8425 12.7422 35.863 17.4932 35.863L3.29176 32.5756ZM3.29176 32.5756C2.36852 31.6588 1.81021 30.7421 1.3818 29.6451M3.29176 32.5756L1.3818 29.6451M33.5946 7.09345L33.5946 7.09342C33.1878 5.99563 32.6315 5.08089 31.7082 4.16412L31.707 4.16288C30.7884 3.24431 29.8709 2.67978 28.7835 2.25904C27.7242 1.84967 26.5067 1.55862 24.6967 1.47876L24.6951 1.47869C22.8339 1.39038 22.2485 1.36987 17.5 1.36987C12.7517 1.36987 12.1654 1.39038 10.3101 1.47193L33.5946 7.09345ZM33.5946 7.09345L33.5975 7.1009M33.5946 7.09345L33.5975 7.1009M33.5975 7.1009C34.0063 8.15226 34.2976 9.37612 34.3774 11.1868L33.5975 7.1009ZM24.5903 3.62426C26.3551 3.70191 27.3316 4.00076 27.9961 4.25913C28.8739 4.59849 29.5208 5.01953 30.1788 5.67745C30.8439 6.34263 31.258 6.98293 31.5972 7.86049C31.8557 8.52522 32.1543 9.50846 32.2319 11.2656C32.3144 13.1222 32.335 13.6845 32.335 18.3562C32.335 23.0347 32.3144 23.597 32.2319 25.4468C32.1543 27.2111 31.8556 28.1875 31.5972 28.8519L24.5903 3.62426ZM24.5903 3.62426C22.7408 3.54175 22.1783 3.52124 17.5 3.52124M24.5903 3.62426L17.5 3.52124M17.5 3.52124C12.8216 3.52124 12.2592 3.54175 10.4096 3.62427C8.65202 3.70191 7.66871 4.00064 7.00396 4.2591C6.12656 4.59831 5.48634 5.01236 4.82125 5.67745C4.16333 6.33538 3.74229 6.98231 3.40293 7.86008C3.14456 8.52458 2.84571 9.50109 2.76806 11.2659C2.68555 13.1154 2.66504 13.6779 2.66504 18.3562C2.66504 23.0278 2.68556 23.5901 2.76807 25.4466L17.5 3.52124ZM3.40293 28.8523C3.74213 29.7297 4.15618 30.3699 4.82125 31.035C5.47904 31.6927 6.12584 32.1137 7.00335 32.4531L2.76807 25.4468C2.84573 27.2043 3.14447 28.1876 3.40293 28.8523ZM3.40293 28.8523C3.40288 28.8522 3.40283 28.8521 3.40277 28.8519L3.86912 28.6716L3.40314 28.8529C3.40307 28.8527 3.403 28.8525 3.40293 28.8523ZM1.3818 29.6451C0.973055 28.5939 0.681931 27.3701 0.602057 25.5598L1.3818 29.6451ZM30.1788 31.035C30.8365 30.3772 31.2575 29.7304 31.5969 28.8529L7.00429 32.4534C7.66875 32.7118 8.64515 33.0105 10.4094 33.0881C12.2592 33.1706 12.8215 33.1912 17.5 33.1912C22.1718 33.1912 22.734 33.1706 24.5906 33.0881C26.3477 33.0105 27.331 32.7119 27.9957 32.4534C28.8733 32.1142 29.5136 31.7001 30.1788 31.035ZM0.5 18.3699C0.5 13.6217 0.520501 13.0353 0.602053 11.1732V25.5597C0.520502 23.7045 0.5 23.1182 0.5 18.3699Z" stroke="#F53255"/>
<path id="Vector_2" d="M17.5 9.38062C12.5371 9.38062 8.51074 13.407 8.51074 18.3699C8.51074 23.3328 12.5371 27.3591 17.5 27.3591C22.4629 27.3591 26.4893 23.3328 26.4893 18.3699C26.4893 13.407 22.4629 9.38062 17.5 9.38062ZM17.5 24.2009C14.2803 24.2009 11.6689 21.5896 11.6689 18.3699C11.6689 15.1501 14.2803 12.5388 17.5 12.5388C20.7197 12.5388 23.3311 15.1501 23.3311 18.3699C23.3311 21.5896 20.7197 24.2009 17.5 24.2009Z" fill="#F53255"/>
<path id="Vector_3" d="M28.9434 9.02515C28.9434 10.1873 28 11.1238 26.8447 11.1238C25.6826 11.1238 24.7461 10.1804 24.7461 9.02515C24.7461 7.86304 25.6895 6.92651 26.8447 6.92651C28 6.92651 28.9434 7.86987 28.9434 9.02515Z" fill="#F53255"/>
</g>
<defs>
<clipPath id="clip0_56_1935">
<rect width="35" height="35" fill="white" transform="translate(0 0.869873)"/>
</clipPath>
</defs>
</svg>
