<svg width="41" height="41" viewBox="0 0 41 41" fill="none" xmlns="http://www.w3.org/2000/svg">
<g id="System / Keyboard">
<path id="Vector" d="M30.3327 25.5366H31.9994M15.3327 25.5366H25.3327M10.3327 25.5366H8.66602M8.66602 20.5366H31.9994M8.66602 15.5366H31.9994M3.66602 25.2036V15.8703C3.66602 14.0034 3.66602 13.0693 4.02933 12.3563C4.34891 11.7291 4.85847 11.2195 5.48568 10.8999C6.19872 10.5366 7.13283 10.5366 8.99967 10.5366H31.6663C33.5332 10.5366 34.4653 10.5366 35.1783 10.8999C35.8056 11.2195 36.3168 11.7291 36.6364 12.3563C36.9994 13.0686 36.9994 14.0016 36.9994 15.8648V25.2084C36.9994 27.0716 36.9994 28.0033 36.6364 28.7156C36.3168 29.3428 35.8056 29.8541 35.1783 30.1737C34.466 30.5366 33.5344 30.5366 31.6712 30.5366H8.9942C7.13101 30.5366 6.19802 30.5366 5.48568 30.1737C4.85847 29.8541 4.34891 29.3428 4.02933 28.7156C3.66602 28.0026 3.66602 27.0705 3.66602 25.2036Z" stroke="#F53255" stroke-width="2" stroke-linecap="round" stroke-linejoin="round"/>
</g>
</svg>
