<svg width="32" height="33" viewBox="0 0 32 33" fill="none" xmlns="http://www.w3.org/2000/svg">
<g id="Communication / Mail">
<path id="Vector" d="M5.33333 8.62581L13.4768 14.7755L13.4796 14.7778C14.3838 15.4409 14.8362 15.7726 15.3317 15.9008C15.7696 16.014 16.23 16.014 16.668 15.9008C17.1639 15.7725 17.6176 15.4398 18.5234 14.7755C18.5234 14.7755 23.7468 10.7671 26.6667 8.62581M4 21.6927V11.5594C4 10.0659 4 9.31864 4.29065 8.74821C4.54631 8.24644 4.95396 7.83879 5.45573 7.58313C6.02616 7.29248 6.77345 7.29248 8.26693 7.29248H23.7336C25.2271 7.29248 25.9728 7.29248 26.5432 7.58313C27.045 7.83879 27.454 8.24644 27.7096 8.74821C28 9.31808 28 10.0645 28 11.555V21.6973C28 23.1878 28 23.9331 27.7096 24.503C27.454 25.0048 27.045 25.4131 26.5432 25.6688C25.9733 25.9591 25.228 25.9591 23.7375 25.9591H8.26255C6.77199 25.9591 6.0256 25.9591 5.45573 25.6688C4.95396 25.4131 4.54631 25.0048 4.29065 24.503C4 23.9326 4 23.1862 4 21.6927Z" stroke="#F53255" stroke-width="2" stroke-linecap="round" stroke-linejoin="round"/>
</g>
</svg>
