<svg width="40" height="41" viewBox="0 0 40 41" fill="none" xmlns="http://www.w3.org/2000/svg">
<g id="File / Note_Search">
<path id="Vector" d="M31.667 32.2034L26.667 27.2034M16.6673 33.87H11.9952C10.132 33.87 9.199 33.87 8.48665 33.5071C7.85945 33.1875 7.34988 32.677 7.0303 32.0498C6.66699 31.3368 6.66699 30.4039 6.66699 28.537V12.537C6.66699 10.6702 6.66699 9.73607 7.0303 9.02303C7.34988 8.39582 7.85945 7.88626 8.48665 7.56668C9.19969 7.20337 10.1338 7.20337 12.0007 7.20337H28.0007C29.8675 7.20337 30.7996 7.20337 31.5126 7.56668C32.1399 7.88626 32.6511 8.39582 32.9707 9.02303C33.3337 9.73537 33.3337 10.6684 33.3337 12.5316V17.2037M22.5003 28.87C19.2787 28.87 16.667 26.2584 16.667 23.0367C16.667 19.815 19.2787 17.2034 22.5003 17.2034C25.722 17.2034 28.3337 19.815 28.3337 23.0367C28.3337 26.2584 25.722 28.87 22.5003 28.87Z" stroke="#F53255" stroke-width="2" stroke-linecap="round" stroke-linejoin="round"/>
</g>
</svg>
