<svg width="32" height="33" viewBox="0 0 32 33" fill="none" xmlns="http://www.w3.org/2000/svg">
<g id="Communication / Phone">
<path id="Vector" d="M12.6699 6.30227C12.265 5.28985 11.2844 4.62598 10.194 4.62598H6.52632C5.13107 4.62598 4 5.75677 4 7.15202C4 19.0116 13.6144 28.626 25.474 28.626C26.8692 28.626 28 27.4948 28 26.0996L28.0006 22.4313C28.0006 21.3408 27.3369 20.3604 26.3245 19.9555L22.8092 18.5499C21.8998 18.1861 20.8644 18.3498 20.1119 18.9769L19.2047 19.7335C18.1452 20.6165 16.5862 20.5463 15.6109 19.571L13.0563 17.0141C12.081 16.0388 12.009 14.4811 12.8919 13.4216L13.6484 12.5144C14.2755 11.7619 14.4407 10.7262 14.0769 9.81676L12.6699 6.30227Z" stroke="#F53255" stroke-width="2" stroke-linecap="round" stroke-linejoin="round"/>
</g>
</svg>
