<svg width="41" height="41" viewBox="0 0 41 41" fill="none" xmlns="http://www.w3.org/2000/svg">
<g id="Frame 1">
<path id="Vector" d="M35.2612 19.8815C34.87 17.9121 33.2491 16.6351 31.6413 17.029C31.0933 17.1627 30.6212 17.476 30.2481 17.9047C28.0841 16.1606 25.1294 15.0082 21.8297 14.7902L23.4094 7.49117L28.0956 8.73516C28.1732 10.1569 29.2346 11.2836 30.5353 11.2836C31.8361 11.2836 32.9816 10.0671 32.9816 8.56843C32.9816 7.06979 31.8856 5.85327 30.5353 5.85327C29.5565 5.85327 28.713 6.49267 28.3235 7.41604L23.2394 6.0658C22.8399 5.95954 22.4388 6.23251 22.3414 6.67587L20.5933 14.7535C16.9123 14.7755 13.5912 15.9572 11.2076 17.8498C11.0904 17.7288 10.965 17.6171 10.8279 17.5181C9.43973 16.5343 7.52163 17.1151 6.54443 18.8134C5.56723 20.5136 5.89902 22.6883 7.28724 23.6721C7.36977 23.7307 7.45396 23.782 7.53979 23.8297C7.48367 24.2089 7.45395 24.5955 7.45395 24.9857C7.45395 30.6377 13.3815 35.2197 20.694 35.2197C28.0065 35.2197 33.9341 30.6377 33.9341 24.9857C33.9341 24.59 33.9027 24.1998 33.8449 23.8168C34.9724 23.0895 35.5864 21.5048 35.2645 19.8815H35.2612ZM13.9048 22.615C13.9048 21.327 14.8457 20.2828 16.0061 20.2828C17.1665 20.2828 18.1074 21.327 18.1074 22.615C18.1074 23.9029 17.1665 24.9473 16.0061 24.9473C14.8457 24.9473 13.9048 23.9029 13.9048 22.615ZM25.5751 29.9781C24.9297 30.6285 23.1469 32.1455 20.5372 32.173C20.5141 32.173 20.4893 32.173 20.4662 32.173C17.8218 32.173 16.016 30.6414 15.3574 29.9781C15.1461 29.7656 15.1313 29.4029 15.3227 29.1702C15.5142 28.9357 15.841 28.9192 16.0507 29.1317C16.6235 29.7107 18.2065 31.0536 20.5273 31.0298C22.7838 31.0059 24.3238 29.696 24.8818 29.1336C25.0931 28.921 25.4183 28.9375 25.6097 29.172C25.8012 29.4065 25.7864 29.7675 25.5751 29.98V29.9781ZM25.3209 24.9473C24.1605 24.9473 23.2196 23.9029 23.2196 22.615C23.2196 21.327 24.1605 20.2828 25.3209 20.2828C26.4813 20.2828 27.4222 21.327 27.4222 22.615C27.4222 23.9029 26.4813 24.9473 25.3209 24.9473Z" fill="#F53255"/>
</g>
</svg>
