<svg width="27" height="27" viewBox="0 0 27 27" fill="none" xmlns="http://www.w3.org/2000/svg">
<g id="Social Icons">
<path id="Vector" d="M19.4187 9.82947C21.1335 11.0597 23.2343 11.7835 25.5032 11.7835V7.40185C25.0738 7.40194 24.6455 7.35701 24.2254 7.26769V10.7167C21.9566 10.7167 19.8562 9.99283 18.1409 8.76273V17.7044C18.1409 22.1774 14.5276 25.8033 10.0707 25.8033C8.40778 25.8033 6.86211 25.2988 5.57812 24.4334C7.04358 25.9372 9.08728 26.87 11.3483 26.87C15.8054 26.87 19.4189 23.2442 19.4189 18.7709V9.82947H19.4187ZM20.995 5.40894C20.1186 4.44809 19.5432 3.20637 19.4187 1.83359V1.27002H18.2078C18.5126 3.01482 19.5522 4.50547 20.995 5.40894ZM8.39711 21.001C7.90747 20.3567 7.64287 19.5685 7.64406 18.7581C7.64406 16.7123 9.29673 15.0535 11.3357 15.0535C11.7157 15.0534 12.0934 15.1118 12.4555 15.2271V10.7476C12.0323 10.6894 11.6052 10.6647 11.1783 10.6737V14.1604C10.8159 14.0451 10.438 13.9865 10.0579 13.9869C8.01894 13.9869 6.36636 15.6455 6.36636 17.6916C6.36636 19.1383 7.19243 20.3908 8.39711 21.001Z" fill="#FF004F"/>
<path id="Vector_2" d="M18.1412 8.76264C19.8565 9.99274 21.9569 10.7166 24.2257 10.7166V7.26759C22.9593 6.99688 21.8382 6.33273 20.9952 5.40895C19.5524 4.50538 18.5129 3.01473 18.2081 1.27002H15.0274V18.7707C15.0202 20.811 13.3704 22.463 11.3358 22.463C10.1368 22.463 9.0717 21.8894 8.39712 21.001C7.19253 20.3908 6.36646 19.1382 6.36646 17.6916C6.36646 15.6457 8.01905 13.987 10.058 13.987C10.4487 13.987 10.8252 14.048 11.1784 14.1605V10.6738C6.79978 10.7646 3.27832 14.3551 3.27832 18.7708C3.27832 20.9751 4.15524 22.9735 5.5785 24.4335C6.86248 25.2988 8.40815 25.8034 10.0711 25.8034C14.5281 25.8034 18.1413 22.1773 18.1413 17.7044V8.76264H18.1412Z" fill="black"/>
<path id="Vector_3" d="M24.226 7.26759V6.33502C23.084 6.33676 21.9645 6.0158 20.9956 5.40885C21.8533 6.35122 22.9827 7.001 24.226 7.26759ZM18.2084 1.27002C18.1793 1.10327 18.157 0.935426 18.1415 0.76694V0.203369H13.7499V17.7043C13.7429 19.7442 12.0931 21.3962 10.0583 21.3962C9.46097 21.3962 8.89696 21.2539 8.39747 21.001C9.07205 21.8894 10.1372 22.4629 11.3361 22.4629C13.3705 22.4629 15.0207 20.8111 15.0278 18.7708V1.27002H18.2084ZM11.1789 10.6738V9.68103C10.812 9.63069 10.442 9.60543 10.0716 9.60562C5.61422 9.60552 2.00098 13.2316 2.00098 17.7043C2.00098 20.5084 3.42104 22.9797 5.57894 24.4334C4.15569 22.9734 3.27876 20.975 3.27876 18.7707C3.27876 14.3551 6.80013 10.7646 11.1789 10.6738Z" fill="#00F2EA"/>
</g>
</svg>
