<svg width="41" height="41" viewBox="0 0 41 41" fill="none" xmlns="http://www.w3.org/2000/svg">
<g id="Edit / Swatches_Palette">
<path id="Vector" d="M11.5003 35.5365H34.7846C35.2719 35.5365 35.6674 35.1417 35.6674 34.6544L35.667 24.752M13.9678 34.9887L35.0705 25.1484C35.5122 24.9424 35.7031 24.4173 35.4972 23.9757L31.3123 15.0019C31.1064 14.5602 30.5813 14.3684 30.1396 14.5744L20.7174 18.9684M17.1367 31.2112C16.3029 34.3231 13.1042 36.1698 9.99235 35.336C6.88046 34.5021 5.03335 31.3039 5.86718 28.192L11.8936 5.70093C12.0197 5.23022 12.5031 4.95078 12.9738 5.07691L22.5387 7.63938C23.0095 7.76551 23.2888 8.2492 23.1627 8.71991L17.1367 31.2112ZM11.5003 29.87H11.5037L11.5036 29.8734L11.5003 29.8733V29.87Z" stroke="#F53255" stroke-width="2" stroke-linecap="round" stroke-linejoin="round"/>
</g>
</svg>
