<svg width="40" height="41" viewBox="0 0 40 41" fill="none" xmlns="http://www.w3.org/2000/svg">
<g id="Interface / Tag">
<g id="Vector">
<path d="M7.91286 13.2784L7.36082 19.3508C7.27906 20.2502 7.23783 20.7036 7.31268 21.134C7.37955 21.5186 7.5131 21.8887 7.70794 22.227C7.92684 22.607 8.25039 22.9306 8.89379 23.574L17.5196 32.1998C18.8314 33.5115 19.4876 34.1677 20.2463 34.4143C20.9157 34.6318 21.6381 34.6323 22.3075 34.4148C23.0686 34.1675 23.73 33.5069 25.0501 32.1868L31.6497 25.5872C32.9698 24.2671 33.6287 23.6074 33.876 22.8463C34.0935 22.1768 34.0922 21.4553 33.8747 20.7858C33.6274 20.0247 32.9695 19.3651 31.6494 18.0451L23.0449 9.44052C22.3956 8.79124 22.0708 8.46656 21.6891 8.24667C21.3508 8.05183 20.9807 7.91771 20.5961 7.85084C20.1621 7.77536 19.7046 7.81686 18.7902 7.89999L12.7405 8.44996C11.1659 8.59311 10.3781 8.665 9.76198 9.00761C9.21877 9.30968 8.77095 9.75749 8.46888 10.3007C8.12798 10.9138 8.05687 11.696 7.91515 13.2549L7.91286 13.2784Z" stroke="#F53255" stroke-width="2" stroke-linecap="round" stroke-linejoin="round"/>
<path d="M16.1873 16.725C16.8382 16.0741 16.8382 15.0188 16.1873 14.368C15.5364 13.7171 14.4804 13.7171 13.8295 14.368C13.1787 15.0188 13.178 16.0739 13.8289 16.7247C14.4798 17.3756 15.5364 17.3759 16.1873 16.725Z" stroke="#F53255" stroke-width="2" stroke-linecap="round" stroke-linejoin="round"/>
</g>
</g>
</svg>
