<svg width="31" height="31" viewBox="0 0 31 31" fill="none" xmlns="http://www.w3.org/2000/svg">
<g id="youtube" clip-path="url(#clip0_56_1910)">
<path id="Vector" d="M29.6247 8.26851C29.4551 7.63027 29.1208 7.04778 28.6553 6.57933C28.1899 6.11087 27.6095 5.77288 26.9724 5.59919C24.627 4.96851 15.252 4.96851 15.252 4.96851C15.252 4.96851 5.87695 4.96851 3.5315 5.59919C2.89437 5.77288 2.31403 6.11087 1.84856 6.57933C1.3831 7.04778 1.04884 7.63027 0.879226 8.26851C0.251953 10.6242 0.251953 15.5367 0.251953 15.5367C0.251953 15.5367 0.251953 20.4492 0.879226 22.8049C1.04884 23.4431 1.3831 24.0256 1.84856 24.494C2.31403 24.9625 2.89437 25.3005 3.5315 25.4742C5.87695 26.1049 15.252 26.1049 15.252 26.1049C15.252 26.1049 24.627 26.1049 26.9724 25.4742C27.6095 25.3005 28.1899 24.9625 28.6553 24.494C29.1208 24.0256 29.4551 23.4431 29.6247 22.8049C30.252 20.4492 30.252 15.5367 30.252 15.5367C30.252 15.5367 30.252 10.6242 29.6247 8.26851Z" fill="#FF0302"/>
<path id="Vector_2" d="M12.1846 19.9975V11.0759L20.0255 15.5367L12.1846 19.9975Z" fill="#FEFEFE"/>
</g>
<defs>
<clipPath id="clip0_56_1910">
<rect width="30" height="30" fill="white" transform="translate(0.222656 0.536621)"/>
</clipPath>
</defs>
</svg>
