<svg width="96" height="97" viewBox="0 0 96 97" fill="none" xmlns="http://www.w3.org/2000/svg">
<path d="M39.4582 11.7723C44.4925 8.7843 50.7567 8.7843 55.791 11.7723L65.5366 17.5566L75.4188 23.1044C80.5236 25.9702 83.6557 31.3952 83.5852 37.249L83.4486 48.5811L83.5852 59.9133C83.6557 65.7671 80.5236 71.192 75.4188 74.0579L65.5366 79.6057L55.791 85.39C50.7567 88.378 44.4925 88.378 39.4582 85.39L29.7126 79.6057L19.8304 74.0579C14.7256 71.192 11.5935 65.7671 11.664 59.9133L11.8006 48.5811L11.664 37.249C11.5935 31.3952 14.7256 25.9702 19.8304 23.1044L29.7126 17.5566L39.4582 11.7723Z" fill="#D5F4F5"/>
<path opacity="0.2" d="M67.8485 13.5408L67.8485 13.5409L67.859 13.5468L78.2737 19.3935C84.4952 22.8863 88.3124 29.4979 88.2265 36.6323L88.0825 48.575L88.0824 48.575L88.0825 48.5871L88.2265 60.5298C88.3124 67.6642 84.4952 74.2758 78.2737 77.7686L67.859 83.6153L67.8589 83.6152L67.8485 83.6213L57.5778 89.7173C51.4423 93.3589 43.8077 93.359 37.6722 89.7173L27.4015 83.6213L27.4015 83.6212L27.391 83.6153L16.9763 77.7686C10.7548 74.2758 6.93757 67.6642 7.02355 60.5298L7.16747 48.5871L7.16761 48.5871L7.16747 48.575L7.02355 36.6323C6.93757 29.4979 10.7548 22.8863 16.9763 19.3935L27.391 13.5468L27.3911 13.5469L27.4015 13.5408L37.6722 7.44478C43.8077 3.80315 51.4423 3.80315 57.5778 7.44478L67.8485 13.5408Z" stroke="#D9D9D9"/>
<path d="M54.7703 57.9145L57.0919 57.9145C57.5964 57.9145 57.8488 57.9145 58.0608 57.8279C58.248 57.7514 58.4127 57.6272 58.5376 57.4682C58.6791 57.2881 58.7487 57.0459 58.8874 56.5606L60.154 52.1273C60.3848 51.3195 60.4996 50.9156 60.409 50.596C60.3296 50.3161 60.1486 50.076 59.9013 49.9228C59.6353 49.7579 59.2467 49.7484 58.5003 49.7478M54.7703 57.9145H41.2297M54.7703 57.9145C56.0745 57.9145 56.7267 57.9145 57.2253 57.6604C57.6643 57.4367 58.0222 57.0793 58.2459 56.6402C58.5003 56.1411 58.5003 55.4877 58.5003 54.1809V49.7478M41.2297 57.9145H39.9746C39.1351 57.9145 38.7142 57.9145 38.432 57.7396C38.1846 57.5863 38.0033 57.3461 37.9239 57.0662C37.9072 57.0073 37.8975 56.9454 37.8943 56.8787M41.2297 57.9145C39.9255 57.9145 39.2724 57.9145 38.7738 57.6604C38.4173 57.4788 38.1151 57.2088 37.8943 56.8787M58.5003 49.7478C58.4543 49.7478 58.407 49.7478 58.3583 49.7478H39.8337L38.1802 55.535L38.1778 55.5431C37.991 56.1969 37.8801 56.5851 37.8943 56.8787M58.5003 49.7478L58.5003 45.3142C58.5003 44.0074 58.5003 43.354 58.2459 42.8549C58.0222 42.4159 57.6646 42.0592 57.2255 41.8355C56.7264 41.5811 56.0735 41.5811 54.7667 41.5811H48M37.8943 56.8787C37.8432 56.8022 37.7964 56.7226 37.7543 56.64C37.5 56.1409 37.5 55.4879 37.5 54.1811V41.5811M37.5 41.5811H48M37.5 41.5811C37.5 40.2925 38.5447 39.2478 39.8333 39.2478H44.1203C44.691 39.2478 44.977 39.2478 45.2455 39.3123C45.4836 39.3694 45.7108 39.4639 45.9196 39.5919C46.155 39.7361 46.3571 39.9383 46.7604 40.3416L48 41.5811" stroke="#F6892F" stroke-width="1.3" stroke-linecap="round" stroke-linejoin="round"/>
</svg>
