<svg width="145" height="144" viewBox="0 0 145 144" fill="none" xmlns="http://www.w3.org/2000/svg">
<path d="M65.8127 4.06054C69.5884 1.81954 74.2866 1.81955 78.0623 4.06055L102.656 18.6574L127.594 32.6574C131.422 34.8068 133.771 38.8755 133.718 43.2659L133.374 71.8628L133.718 100.46C133.771 104.85 131.422 108.919 127.594 111.068L102.656 125.068L78.0623 139.665C74.2866 141.906 69.5884 141.906 65.8127 139.665L41.2194 125.068L16.2814 111.068C12.4528 108.919 10.1037 104.85 10.1566 100.46L10.5013 71.8628L10.1566 43.2659C10.1037 38.8755 12.4528 34.8068 16.2814 32.6574L41.2194 18.6574L65.8127 4.06054Z" fill="#F9F9F9"/>
<path d="M65.8127 24.131C69.5884 21.89 74.2866 21.89 78.0623 24.131L94.0254 33.6056L110.212 42.6927C114.041 44.8421 116.39 48.9108 116.337 53.3012L116.113 71.8629L116.337 90.4246C116.39 94.815 114.041 98.8837 110.212 101.033L94.0254 110.12L78.0623 119.595C74.2866 121.836 69.5884 121.836 65.8127 119.595L49.8496 110.12L33.6628 101.033C29.8342 98.8837 27.4851 94.815 27.538 90.4247L27.7617 71.8629L27.538 53.3012C27.4851 48.9108 29.8342 44.8421 33.6628 42.6927L49.8496 33.6056L65.8127 24.131Z" fill="white"/>
<g clip-path="url(#clip0_25_990)">
<g clip-path="url(#clip1_25_990)">
<mask id="mask0_25_990" style="mask-type:luminance" maskUnits="userSpaceOnUse" x="50" y="33" width="45" height="78">
<path d="M94.3125 33.8628H50.6885V109.863H94.3125V33.8628Z" fill="white" stroke="white"/>
</mask>
<g mask="url(#mask0_25_990)">
<path d="M70.9096 99.8005L52.2207 89.0129C51.7346 88.7302 51.4867 88.3581 51.4867 87.991L51.4668 94.1083C51.4668 94.4802 51.7098 94.8473 52.2008 95.135L70.8846 105.923C71.3833 106.21 72.0401 106.348 72.6913 106.34V100.224C72.0482 100.227 71.4025 100.087 70.9096 99.8005Z" fill="#E53E3E"/>
<path d="M70.9096 99.8005L52.2207 89.0129C51.7346 88.7302 51.4867 88.3581 51.4867 87.991L51.4668 94.1083C51.4668 94.4802 51.7098 94.8473 52.2008 95.135L70.8846 105.923C71.3833 106.21 72.0401 106.348 72.6913 106.34V100.224C72.0482 100.227 71.4025 100.087 70.9096 99.8005Z" stroke="#E53E3E" stroke-linecap="round" stroke-linejoin="round"/>
<path d="M92.9811 89.0178L74.4163 99.8055C73.9395 100.082 73.3167 100.22 72.6914 100.224V106.34C73.3094 106.333 73.9229 106.196 74.3914 105.923L92.9562 95.135C93.4373 94.8572 93.6755 94.4902 93.6755 94.1282L93.7002 88.0059C93.7002 88.373 93.4573 88.7399 92.9811 89.0178Z" fill="#F6892F"/>
<path d="M92.9811 89.0178L74.4163 99.8055C73.9395 100.082 73.3167 100.22 72.6914 100.224V106.34C73.3094 106.333 73.9229 106.196 74.3914 105.923L92.9562 95.135C93.4373 94.8572 93.6755 94.4902 93.6755 94.1282L93.7002 88.0059C93.7002 88.373 93.4573 88.7399 92.9811 89.0178Z" stroke="#E53E3E" stroke-linecap="round" stroke-linejoin="round"/>
<path d="M92.9678 86.9842C93.94 87.5456 93.945 88.4559 92.9792 89.0172L74.4169 99.8045C73.451 100.366 71.8823 100.364 70.9101 99.8027L52.2234 89.0139C51.2512 88.4525 51.2428 87.5439 52.2088 86.9825L70.7709 76.1954C71.7367 75.6341 73.3088 75.6341 74.281 76.1954L92.9678 86.9842Z" fill="white"/>
<path d="M92.9678 86.9842C93.94 87.5456 93.945 88.4559 92.9792 89.0172L74.4169 99.8045C73.451 100.366 71.8823 100.364 70.9101 99.8027L52.2234 89.0139C51.2512 88.4525 51.2428 87.5439 52.2088 86.9826L70.7709 76.1954C71.7367 75.6341 73.3088 75.6341 74.281 76.1954L92.9678 86.9842Z" stroke="#E53E3E" stroke-linecap="round" stroke-linejoin="round"/>
<path d="M89.4972 58.4271L89.3979 87.9517L72.5889 97.72L72.6881 68.1953L89.4972 58.4271Z" fill="#F6892F"/>
<path d="M89.4972 58.4271L89.3979 87.9517L72.5889 97.72L72.6881 68.1953L89.4972 58.4271Z" stroke="#E53E3E" stroke-linecap="round" stroke-linejoin="round"/>
<path d="M74.6811 69.3467L87.4885 61.9039L87.405 86.8003L74.5977 94.2432L74.6811 69.3467Z" fill="white"/>
<path d="M76.6738 70.4981L85.4796 65.3807" stroke="#E53E3E" stroke-linecap="round" stroke-linejoin="round" stroke-dasharray="1.24 1.24"/>
<path d="M76.6738 72.8854L85.4796 67.7679" stroke="#E53E3E" stroke-linecap="round" stroke-linejoin="round" stroke-dasharray="2.47 1.03"/>
<path d="M76.6738 75.2726L85.4796 70.1552" stroke="#E53E3E" stroke-linecap="round" stroke-linejoin="round" stroke-dasharray="1.24 1.24"/>
<path d="M76.6738 77.6599L85.4796 72.5424" stroke="#E53E3E" stroke-linecap="round" stroke-linejoin="round" stroke-dasharray="2.47 1.03"/>
<path d="M76.6738 80.0471L85.4796 74.9297" stroke="#E53E3E" stroke-linecap="round" stroke-linejoin="round" stroke-dasharray="1.24 1.24"/>
<path d="M76.6738 82.4344L85.4796 77.3168" stroke="#E53E3E" stroke-linecap="round" stroke-linejoin="round" stroke-dasharray="2.47 1.03"/>
<path d="M82.0109 81.72L76.6738 84.8215" stroke="#E53E3E" stroke-linecap="round" stroke-linejoin="round" stroke-dasharray="2.47 0.82"/>
<path d="M72.6883 68.1953L72.5891 97.72L55.6699 87.9518L55.7692 58.4271L72.6883 68.1953Z" fill="white"/>
<path d="M72.6883 68.1953L72.5891 97.72L55.6699 87.9518L55.7692 58.4271L72.6883 68.1953Z" stroke="#E53E3E" stroke-linecap="round" stroke-linejoin="round"/>
<path d="M89.4967 58.427L72.6876 68.1953L55.7686 58.427L72.5776 48.6588L89.4967 58.427Z" fill="white"/>
<path d="M89.4967 58.427L72.6876 68.1953L55.7686 58.427L72.5776 48.6588L89.4967 58.427Z" stroke="#E53E3E" stroke-linecap="round" stroke-linejoin="round"/>
<path d="M85.8532 48.1681L85.7754 58.0571L72.5879 65.7207L72.6656 55.8319L85.8532 48.1681Z" fill="#DCDCE2"/>
<path d="M85.8532 48.1681L85.7754 58.0571L72.5879 65.7207L72.6656 55.8319L85.8532 48.1681Z" stroke="#E53E3E" stroke-linecap="round" stroke-linejoin="round"/>
<path d="M72.6651 55.832L72.5875 65.7208L59.3135 58.0571L59.3913 48.1683L72.6651 55.832Z" fill="#E53E3E"/>
<path d="M72.6651 55.832L72.5875 65.7208L59.3135 58.0571L59.3913 48.1683L72.6651 55.832Z" stroke="#E53E3E" stroke-linecap="round" stroke-linejoin="round"/>
<path d="M85.8531 48.1681L72.6654 55.832L59.3916 48.1682L72.5792 40.5044L85.8531 48.1681Z" fill="white"/>
<path d="M85.8531 48.1681L72.6654 55.832L59.3916 48.1682L72.5792 40.5044L85.8531 48.1681Z" stroke="#E53E3E" stroke-linecap="round" stroke-linejoin="round"/>
<path d="M89.4972 46.0635L89.3979 52.1697L72.5889 61.9381L72.6881 55.832L89.4972 46.0635Z" fill="#F6892F"/>
<path d="M89.4972 46.0635L89.3979 52.1697L72.5889 61.9381L72.6881 55.832L89.4972 46.0635Z" stroke="#E53E3E" stroke-linecap="round" stroke-linejoin="round"/>
<path d="M72.6883 55.8319L72.5891 61.9381L55.6699 52.1698L55.7692 46.0637L72.6883 55.8319Z" fill="white"/>
<path d="M72.6883 55.8319L72.5891 61.9381L55.6699 52.1698L55.7692 46.0637L72.6883 55.8319Z" stroke="#E53E3E" stroke-linecap="round" stroke-linejoin="round"/>
<path d="M89.4967 46.0635L72.6876 55.832L55.7686 46.0637L72.5776 36.2952L89.4967 46.0635Z" fill="white"/>
<path d="M83.3685 46.0227L72.6875 52.2548L61.9365 46.0228L72.6176 39.7908L83.3685 46.0227Z" fill="#E53E3E"/>
<path d="M81.8481 46.1748L72.682 51.4948L63.4561 46.1748L72.6221 40.8548L81.8481 46.1748Z" fill="#F6892F"/>
<path d="M89.4967 46.0635L72.6876 55.832L55.7686 46.0637L72.5776 36.2952L89.4967 46.0635Z" stroke="#E53E3E" stroke-linecap="round" stroke-linejoin="round"/>
<path d="M59.2723 46.3928C58.9627 46.5724 58.4535 46.5724 58.1406 46.3928C57.8277 46.2098 57.8245 45.9167 58.1373 45.737C58.4503 45.554 58.9561 45.554 59.2689 45.737C59.5818 45.9167 59.5851 46.2098 59.2723 46.3928Z" fill="#E53E3E"/>
<path d="M87.1287 46.3928C86.8192 46.5724 86.3098 46.5724 85.997 46.3928C85.684 46.2098 85.681 45.9167 85.9938 45.737C86.3066 45.554 86.8125 45.554 87.1253 45.737C87.4381 45.9167 87.4415 46.2098 87.1287 46.3928Z" fill="#E53E3E"/>
<path d="M73.2008 38.5003C72.8914 38.6799 72.3822 38.6799 72.0694 38.5003C71.7564 38.3173 71.7532 38.0244 72.066 37.8447C72.3788 37.6617 72.8847 37.6617 73.1975 37.8447C73.5103 38.0244 73.5137 38.3173 73.2008 38.5003Z" fill="#E53E3E"/>
<path d="M73.2008 54.0972C72.8914 54.2768 72.3822 54.2768 72.0694 54.0972C71.7564 53.9141 71.7532 53.6212 72.066 53.4416C72.3788 53.2586 72.8847 53.2586 73.1975 53.4416C73.5103 53.6212 73.5137 53.9141 73.2008 54.0972Z" fill="#E53E3E"/>
<path d="M57.7539 66.2285V61.8792L70.6869 69.3461V73.6953L57.7539 66.2285Z" fill="#F56565"/>
<path d="M57.7539 66.2285V61.8792L70.6869 69.3461V73.6953L57.7539 66.2285Z" stroke="#E53E3E" stroke-linecap="round" stroke-linejoin="round"/>
<path d="M57.7539 72.5446V68.1953L70.6869 75.6623V80.0116L57.7539 72.5446Z" fill="#F56565"/>
<path d="M57.7539 72.5446V68.1953L70.6869 75.6623V80.0116L57.7539 72.5446Z" stroke="#E53E3E" stroke-linecap="round" stroke-linejoin="round"/>
<path d="M57.7539 78.8609V74.5117L70.6869 81.9786V86.3279L57.7539 78.8609Z" fill="#F56565"/>
<path d="M57.7539 78.8609V74.5117L70.6869 81.9786V86.3279L57.7539 78.8609Z" stroke="#E53E3E" stroke-linecap="round" stroke-linejoin="round"/>
<path d="M80.6868 99.1688C80.6868 99.5968 80.3878 100.116 80.0151 100.33C79.6438 100.544 79.3422 100.374 79.3408 99.9458C79.3395 99.5178 79.6398 98.9989 80.0111 98.7843C80.3825 98.5696 80.6854 98.7408 80.6868 99.1688Z" fill="#E53E3E"/>
<path d="M83.8683 97.3317C83.8683 97.7598 83.5694 98.2787 83.1967 98.4933C82.8254 98.7067 82.5238 98.5368 82.5225 98.1087C82.5211 97.6807 82.8215 97.1619 83.1928 96.9473C83.5641 96.7327 83.8669 96.9037 83.8683 97.3317Z" fill="#E53E3E"/>
<path d="M87.0501 95.4948C87.0501 95.9228 86.7511 96.4418 86.3784 96.6564C86.007 96.8698 85.7055 96.6999 85.7041 96.2718C85.7027 95.8438 86.0031 95.3249 86.3744 95.1102C86.7458 94.8956 87.0487 95.0668 87.0501 95.4948Z" fill="#E53E3E"/>
<g opacity="0.166325">
<path d="M59.124 64.8688C59.124 65.1674 59.3326 65.5293 59.5925 65.679C59.8515 65.8278 60.0619 65.7092 60.0628 65.4107C60.0637 65.1122 59.8542 64.7504 59.5952 64.6007C59.3362 64.451 59.1249 64.5703 59.124 64.8688Z" fill="#E53E3E"/>
<path d="M59.124 71.1852C59.124 71.4837 59.3326 71.8455 59.5925 71.9952C59.8515 72.144 60.0619 72.0256 60.0628 71.7271C60.0637 71.4285 59.8542 71.0666 59.5952 70.9169C59.3362 70.7672 59.1249 70.8867 59.124 71.1852Z" fill="#E53E3E"/>
<path d="M59.124 77.5014C59.124 77.7999 59.3326 78.1617 59.5925 78.3114C59.8515 78.4602 60.0619 78.3418 60.0628 78.0433C60.0637 77.7448 59.8542 77.383 59.5952 77.2333C59.3362 77.0836 59.1249 77.2029 59.124 77.5014Z" fill="#E53E3E"/>
</g>
<g opacity="0.416838">
<path d="M61.3428 66.15C61.3428 66.4485 61.5512 66.8103 61.8111 66.96C62.0701 67.1088 62.2805 66.9904 62.2814 66.6919C62.2823 66.3934 62.0728 66.0315 61.8138 65.8817C61.5548 65.732 61.3437 65.8515 61.3428 66.15Z" fill="#E53E3E"/>
<path d="M61.3428 72.4662C61.3428 72.7648 61.5512 73.1265 61.8111 73.2763C62.0701 73.4251 62.2805 73.3067 62.2814 73.0081C62.2823 72.7096 62.0728 72.3478 61.8138 72.1981C61.5548 72.0484 61.3437 72.1677 61.3428 72.4662Z" fill="#E53E3E"/>
<path d="M61.3428 78.7824C61.3428 79.0809 61.5512 79.4429 61.8111 79.5926C62.0701 79.7414 62.2805 79.6228 62.2814 79.3243C62.2823 79.0258 62.0728 78.664 61.8138 78.5143C61.5548 78.3646 61.3437 78.4839 61.3428 78.7824Z" fill="#E53E3E"/>
</g>
<path d="M76.6189 46.3066L72.5581 48.6663L68.4727 46.3076L72.5581 43.9479L76.6189 46.3066Z" fill="white"/>
<path d="M76.6184 36.6776L72.5576 44.0662V39.0375L76.6184 36.6776Z" fill="#F56565"/>
<path d="M72.5581 39.0374V44.0661L68.4727 36.6787L72.5581 39.0374Z" fill="#E53E3E"/>
<path d="M76.6189 36.6775L72.5581 39.0375L68.4727 36.6788L72.5338 34.3188L76.6189 36.6775Z" fill="#FC8181"/>
<g opacity="0.916838">
<path d="M63.5615 67.4311C63.5615 67.7296 63.7701 68.0914 64.03 68.2411C64.289 68.3899 64.4992 68.2715 64.5001 67.973C64.501 67.6744 64.2917 67.3127 64.0327 67.163C63.7737 67.0132 63.5624 67.1326 63.5615 67.4311Z" fill="#E53E3E"/>
<path d="M63.5615 73.7473C63.5615 74.0458 63.7701 74.4078 64.03 74.5575C64.289 74.7063 64.4992 74.5877 64.5001 74.2892C64.501 73.9907 64.2917 73.6289 64.0327 73.4792C63.7737 73.3295 63.5624 73.4488 63.5615 73.7473Z" fill="#E53E3E"/>
<path d="M63.5615 80.0637C63.5615 80.3622 63.7701 80.7239 64.03 80.8737C64.289 81.0225 64.4992 80.9041 64.5001 80.6055C64.501 80.307 64.2917 79.9451 64.0327 79.7954C63.7737 79.6457 63.5624 79.7651 63.5615 80.0637Z" fill="#E53E3E"/>
</g>
</g>
</g>
</g>
<defs>
<clipPath id="clip0_25_990">
<rect width="76" height="76" fill="white" transform="translate(34.5 33.8628)"/>
</clipPath>
<clipPath id="clip1_25_990">
<rect width="43.624" height="76" fill="white" transform="translate(50.6885 33.8628)"/>
</clipPath>
</defs>
</svg>
