<svg width="25" height="22" viewBox="0 0 25 22" fill="none" xmlns="http://www.w3.org/2000/svg">
<g id="Group">
<path id="Vector" d="M24.6667 11C24.6667 6.24242 21.898 2.13167 17.884 0.190674V21.8092C21.898 19.8682 24.6667 15.7575 24.6667 11Z" fill="#D80027"/>
<path id="Vector_2" d="M0.666748 11C0.666748 15.7575 3.43542 19.8682 7.44937 21.8092V0.190674C3.43542 2.13167 0.666748 6.24242 0.666748 11Z" fill="#D80027"/>
<path id="Vector_3" d="M14.7538 12.5653L16.8407 11.5218L15.7973 11.0001V9.95659L13.7103 11.0001L14.7538 8.9131H13.7103L12.6668 7.3479L11.6233 8.9131H10.5798L11.6233 11.0001L9.53636 9.95659V11.0001L8.49292 11.5218L10.5798 12.5653L10.0581 13.6088H12.1451V15.174H13.1885V13.6088H15.2755L14.7538 12.5653Z" fill="#D80027"/>
</g>
</svg>
