<svg width="56" height="57" viewBox="0 0 56 57" fill="none" xmlns="http://www.w3.org/2000/svg">
<g clip-path="url(#clip0_25_523)">
<path d="M28 56.5366C43.464 56.5366 56 44.0006 56 28.5366C56 13.0726 43.464 0.536621 28 0.536621C12.536 0.536621 0 13.0726 0 28.5366C0 44.0006 12.536 56.5366 28 56.5366Z" fill="#F0F0F0"/>
<path d="M56.0002 28.5366C56.0002 16.4976 48.4017 6.2344 37.7393 2.2782V54.7952C48.4017 50.8388 56.0002 40.5756 56.0002 28.5366Z" fill="#D80027"/>
<path d="M0 28.5366C0 40.5756 7.59861 50.8388 18.2609 54.795V2.2782C7.59861 6.2344 0 16.4976 0 28.5366Z" fill="#0052B4"/>
</g>
<defs>
<clipPath id="clip0_25_523">
<rect width="56" height="56" fill="white" transform="translate(0 0.536621)"/>
</clipPath>
</defs>
</svg>
