<svg width="56" height="56" viewBox="0 0 56 56" fill="none" xmlns="http://www.w3.org/2000/svg">
<g id="germany" clip-path="url(#clip0_56_786)">
<path id="Vector" d="M1.7417 37.7389C5.6979 48.4012 15.9611 55.9998 28.0001 55.9998C40.0391 55.9998 50.3023 48.4012 54.2585 37.7389L28.0001 35.3042L1.7417 37.7389Z" fill="#FFDA44"/>
<path id="Vector_2" d="M28.0001 0C15.9611 0 5.6979 7.5985 1.7417 18.2609L28.0001 20.6956L54.2585 18.2608C50.3023 7.5985 40.0391 0 28.0001 0Z" fill="black"/>
<path id="Vector_3" d="M1.74158 18.2607C0.616109 21.294 0 24.5749 0 27.9998C0 31.4248 0.616109 34.7056 1.74158 37.7389H54.2585C55.384 34.7056 56 31.4248 56 27.9998C56 24.5749 55.384 21.294 54.2584 18.2607H1.74158Z" fill="#D80027"/>
</g>
<defs>
<clipPath id="clip0_56_786">
<rect width="56" height="56" fill="white"/>
</clipPath>
</defs>
</svg>
