<svg xmlns="http://www.w3.org/2000/svg" width="56" height="57" viewBox="0 0 56 57" fill="none" class="mdl-js">
<g clip-path="url(#clip0_29_476)">
<path d="M28 56.5366C43.464 56.5366 56 44.0006 56 28.5366C56 13.0726 43.464 0.536621 28 0.536621C12.536 0.536621 0 13.0726 0 28.5366C0 44.0006 12.536 56.5366 28 56.5366Z" fill="#F0F0F0"/>
<path d="M5.78839 11.4896C3.58897 14.3512 1.93052 17.6494 0.964844 21.2324H15.5312L5.78839 11.4896Z" fill="#0052B4"/>
<path d="M55.0359 21.2324C54.0702 17.6495 52.4116 14.3513 50.2123 11.4897L40.4697 21.2324H55.0359Z" fill="#0052B4"/>
<path d="M0.964844 35.8412C1.93062 39.4241 3.58908 42.7223 5.78839 45.5838L15.5309 35.8412H0.964844Z" fill="#0052B4"/>
<path d="M45.0474 6.32488C42.1858 4.12546 38.8877 2.467 35.3047 1.50122V16.0675L45.0474 6.32488Z" fill="#0052B4"/>
<path d="M10.9531 50.7485C13.8147 52.9479 17.1129 54.6063 20.6958 55.5721V41.006L10.9531 50.7485Z" fill="#0052B4"/>
<path d="M20.6957 1.50122C17.1128 2.467 13.8146 4.12546 10.9531 6.32477L20.6957 16.0673V1.50122Z" fill="#0052B4"/>
<path d="M35.3047 55.5721C38.8876 54.6063 42.1858 52.9479 45.0473 50.7486L35.3047 41.006V55.5721Z" fill="#0052B4"/>
<path d="M40.4697 35.8412L50.2123 45.5839C52.4116 42.7224 54.0702 39.4241 55.0359 35.8412H40.4697Z" fill="#0052B4"/>
<path d="M55.763 24.8845H31.6524H31.6523V0.773637C30.4567 0.617996 29.2378 0.536621 28 0.536621C26.762 0.536621 25.5433 0.617996 24.3479 0.773637V24.8843V24.8844H0.237016C0.081375 26.0799 0 27.2988 0 28.5366C0 29.7746 0.081375 30.9933 0.237016 32.1888H24.3476H24.3477V56.2996C25.5433 56.4552 26.762 56.5366 28 56.5366C29.2378 56.5366 30.4567 56.4554 31.6521 56.2996V32.189V32.1889H55.763C55.9186 30.9933 56 29.7746 56 28.5366C56 27.2988 55.9186 26.0799 55.763 24.8845Z" fill="#D80027"/>
<path d="M35.3047 35.8412L47.7992 48.3357C48.3739 47.7613 48.9221 47.1607 49.4451 46.5382L38.748 35.8411H35.3047V35.8412Z" fill="#D80027"/>
<path d="M20.6958 35.8411H20.6956L8.20117 48.3355C8.77561 48.9102 9.37619 49.4584 9.99875 49.9814L20.6958 39.2841V35.8411Z" fill="#D80027"/>
<path d="M20.6951 21.2324V21.2322L8.20056 8.73755C7.62591 9.31199 7.07772 9.91256 6.55469 10.5351L17.2519 21.2323H20.6951V21.2324Z" fill="#D80027"/>
<path d="M35.3047 21.2325L47.7994 8.73769C47.2249 8.16303 46.6243 7.61484 46.0018 7.09192L35.3047 17.7891V21.2325Z" fill="#D80027"/>
</g>
<defs>
<clipPath id="clip0_29_476">
<rect width="56" height="56" fill="white" transform="translate(0 0.536621)"/>
</clipPath>
</defs>
<script xmlns="" async="false" type="text/javascript" src="chrome-extension://fnjhmkhhmkbjkkabndcnnogagogbneec/in-page.js"/></svg>